<svg width="100" height="100" viewBox="0 0 100 100" fill="none" xmlns="http://www.w3.org/2000/svg">
<path d="M63.9583 15.1459L59.0208 18.9584C55.6771 14.6521 50.5458 12.2729 45.0687 12.5167C36.0687 12.9167 29.1667 20.7354 29.1667 29.7438V48.7917L51.0417 61.5417L48.9583 65.125L24.5708 50.9021C23.5458 50.3042 22.9167 49.2084 22.9167 48.0229V29.925C22.9167 16.875 33.6021 5.81252 46.6458 6.26461C53.4771 6.50002 59.75 9.71461 63.9583 15.1459Z" fill="#546E7A"/>
<path d="M26.7937 20.4854L27.6271 26.6667C22.2271 27.4104 17.6 30.6646 15.0729 35.5292C10.9187 43.5229 14.2396 53.4083 22.0417 57.9146L38.5375 67.4375L60.5167 54.8687L62.5792 58.4646L38.0687 72.4729C37.0396 73.0604 35.775 73.0583 34.7479 72.4667L19.075 63.4187C7.77083 56.8917 3.53333 42.1062 10.4458 31.0375C14.0667 25.2375 19.9875 21.4146 26.7937 20.4854Z" fill="#546E7A"/>
<path d="M12.8354 55.3396L18.6063 57.7083C16.55 62.7563 17.0542 68.3917 20.0042 73.0125C24.85 80.6063 35.0729 82.675 42.8729 78.1708L59.3688 68.6458L59.4729 43.3271L63.6188 43.3396L63.4958 71.5708C63.4917 72.7563 62.8563 73.85 61.8292 74.4438L46.1563 83.4917C34.8542 90.0167 19.9313 86.2937 13.8 74.7729C10.5896 68.7375 10.2375 61.7 12.8354 55.3396Z" fill="#546E7A"/>
<path d="M36.0417 84.8542L40.9792 81.0417C44.3229 85.3479 49.4542 87.7271 54.9312 87.4833C63.9312 87.0833 70.8333 79.2646 70.8333 70.2562V51.2083L48.9583 38.4583L51.0417 34.875L75.4292 49.0979C76.4542 49.6958 77.0833 50.7917 77.0833 51.9771V70.075C77.0833 83.125 66.3958 94.1875 53.3542 93.7375C46.5229 93.5 40.25 90.2854 36.0417 84.8542Z" fill="#546E7A"/>
<path d="M73.2063 79.5146L72.3729 73.3333C77.7729 72.5896 82.4 69.3354 84.9271 64.4708C89.0813 56.4771 85.7604 46.5917 77.9583 42.0854L61.4625 32.5625L39.4833 45.1312L37.4208 41.5354L61.9313 27.5271C62.9604 26.9396 64.225 26.9417 65.2521 27.5333L80.925 36.5812C92.2271 43.1062 96.4646 57.8917 89.5521 68.9625C85.9333 74.7625 80.0125 78.5854 73.2063 79.5146Z" fill="#546E7A"/>
<path d="M87.1646 44.6604L81.3938 42.2917C83.45 37.2437 82.9458 31.6083 79.9958 26.9875C75.15 19.3938 64.9271 17.325 57.1271 21.8292L40.6313 31.3542L40.5271 56.6729L36.3813 56.6604L36.5042 28.4292C36.5083 27.2438 37.1438 26.15 38.1708 25.5563L53.8438 16.5083C65.1458 9.98334 80.0688 13.7063 86.2 25.2271C89.4104 31.2625 89.7625 38.3 87.1646 44.6604Z" fill="#546E7A"/>
</svg>
