<svg width="100" height="100" viewBox="0 0 100 100" fill="none" xmlns="http://www.w3.org/2000/svg">
<path d="M44.2708 84.2792L57.0417 71.4833C58.4875 70.0333 58.4875 67.6854 57.0417 66.2354L23.2604 32.3896C21.8146 30.9396 19.4688 30.9396 18.0229 32.3896L5.25208 45.1854C3.80625 46.6354 3.80625 48.9833 5.25208 50.4333L39.0333 84.2792C40.4792 85.7292 42.8229 85.7292 44.2708 84.2792Z" fill="#0D47A1"/>
<path d="M39.1417 84.3708L26.1771 71.3812C24.7833 69.9854 24.7833 67.7229 26.1771 66.3271L74.6958 17.7125C76.0896 16.3167 78.3479 16.3167 79.7396 17.7125L92.7042 30.7021C94.0979 32.0979 94.0979 34.3604 92.7042 35.7562L44.1854 84.3708C42.7938 85.7646 40.5354 85.7646 39.1417 84.3708Z" fill="#29B6F6"/>
</svg>
