<svg width="101" height="101" viewBox="0 0 101 101" fill="none" xmlns="http://www.w3.org/2000/svg">
<path d="M85.8267 21.5934H52.4933V79.9267H85.8267C86.9787 79.9267 87.91 78.9954 87.91 77.8434V23.6767C87.91 22.5246 86.9787 21.5934 85.8267 21.5934Z" fill="#2196F3"/>
<path d="M52.4933 32.0121H81.66V36.1767H52.4933V32.0121ZM52.4933 40.3433H81.66V44.51H52.4933V40.3433ZM52.4933 48.6787H81.66V52.8454H52.4933V48.6787ZM52.4933 57.0121H81.66V61.1767H52.4933V57.0121ZM52.4933 65.3433H81.66V69.5121H52.4933V65.3433Z" fill="white"/>
<path d="M56.66 88.26L12.91 79.9267V21.5933L56.66 13.26V88.26Z" fill="#0D47A1"/>
<path d="M44.5079 65.3683H38.8475L35.0933 46.6433C34.8892 45.6496 34.7704 44.5683 34.7308 43.36H34.6642C34.5746 44.6871 34.435 45.7808 34.2538 46.6433L30.3996 65.3683H24.51L18.5517 36.1725H24.1246L27.3246 55.6058C27.4537 56.4475 27.5558 57.56 27.6225 58.9537H27.71C27.7496 57.9162 27.9142 56.7642 28.1746 55.5267L32.2787 36.1704H37.7412L41.46 55.7621C41.5892 56.4871 41.7079 57.5246 41.8142 58.91H41.8787C41.9204 57.8371 42.0308 56.7537 42.2121 55.6537L45.3433 36.1704H50.485L44.5079 65.3683Z" fill="white"/>
</svg>
