<svg width="101" height="101" viewBox="0 0 101 101" fill="none" xmlns="http://www.w3.org/2000/svg">
<path d="M85.8267 21.5934H52.4933V79.9267H85.8267C86.9787 79.9267 87.91 78.9954 87.91 77.8434V23.6767C87.91 22.5246 86.9787 21.5934 85.8267 21.5934Z" fill="#FF8A65"/>
<path d="M50.41 61.1767H79.5767V65.3433H50.41V61.1767ZM50.41 69.51H79.5767V73.6767H50.41V69.51ZM62.91 32.01C56.0079 32.01 50.41 37.6079 50.41 44.51C50.41 51.4121 56.0079 57.01 62.91 57.01C69.8121 57.01 75.41 51.4121 75.41 44.51H62.91V32.01Z" fill="#FBE9E7"/>
<path d="M67.0767 27.8434V40.3434H79.5767C79.5767 33.4413 73.9787 27.8434 67.0767 27.8434Z" fill="#FBE9E7"/>
<path d="M56.66 88.26L12.91 79.9267V21.5933L56.66 13.26V88.26Z" fill="#E64A19"/>
<path d="M35.4683 36.1767H25.41V65.3433H31.66V55.2954H34.8933C38.3412 55.2954 41.0933 54.3871 43.1537 52.5787C45.2121 50.7683 46.2454 48.3975 46.2413 45.4704C46.2433 39.2746 42.6496 36.1767 35.4683 36.1767ZM34.3558 50.3121H31.66V41.2204H34.3558C37.7746 41.2204 39.4829 42.7204 39.4829 45.7163C39.4829 48.7829 37.7746 50.3121 34.3558 50.3121Z" fill="white"/>
</svg>
