<svg width="101" height="101" viewBox="0 0 101 101" fill="none" xmlns="http://www.w3.org/2000/svg">
<path d="M85.8267 21.5934H52.4933V79.9267H85.8267C86.9787 79.9267 87.91 78.9954 87.91 77.8434V23.6767C87.91 22.5246 86.9787 21.5934 85.8267 21.5934Z" fill="#4CAF50"/>
<path d="M67.0767 32.01H81.66V38.26H67.0767V32.01ZM67.0767 52.8433H81.66V59.0933H67.0767V52.8433ZM67.0767 63.26H81.66V69.51H67.0767V63.26ZM67.0767 42.4267H81.66V48.6767H67.0767V42.4267ZM52.4933 32.01H62.91V38.26H52.4933V32.01ZM52.4933 52.8433H62.91V59.0933H52.4933V52.8433ZM52.4933 63.26H62.91V69.51H52.4933V63.26ZM52.4933 42.4267H62.91V48.6767H52.4933V42.4267Z" fill="white"/>
<path d="M56.66 88.26L12.91 79.9267V21.5933L56.66 13.26V88.26Z" fill="#2E7D32"/>
<path d="M40.2621 65.3433L35.2392 55.8412C35.0475 55.485 34.8517 54.835 34.6475 53.8871H34.5704C34.4746 54.335 34.2496 55.0142 33.8954 55.9267L28.8517 65.3433H21.0246L30.3204 50.7579L21.8142 36.1767H29.8079L33.9767 44.9183C34.3017 45.6079 34.5933 46.4287 34.8517 47.3746H34.935C35.0975 46.81 35.4017 45.9579 35.8496 44.8329L40.4871 36.1767H47.81L39.0621 50.6329L48.0538 65.3392H40.2621V65.3433Z" fill="white"/>
</svg>
