<svg width="101" height="101" viewBox="0 0 101 101" fill="none" xmlns="http://www.w3.org/2000/svg">
<path d="M91.9666 23.3658V77.0741C91.9666 79.7199 90.3208 82.0741 87.8416 82.9491L69.4666 91.5741L71.1333 68.9699V31.47L69.4666 8.86578L87.8416 17.4908C90.3208 18.3658 91.9666 20.7199 91.9666 23.3658Z" fill="#29B6F6"/>
<path d="M19.05 70.8366L71.1333 31.47V11.372C71.1333 8.87621 68.0458 7.70954 66.3937 9.58038L10.0042 61.1345C8.12916 62.8637 8.23541 65.8575 10.2271 67.4512C10.2271 67.4512 12.9854 70.0179 13.9833 70.7304C15.5167 71.8241 17.5312 71.9491 19.05 70.8366Z" fill="#0277BD"/>
<path d="M19.05 29.6033L71.1333 68.97V89.0679C71.1333 91.5637 68.0458 92.7304 66.3937 90.8595L10.0042 39.3054C8.12916 37.5762 8.23541 34.5825 10.2271 32.9887C10.2271 32.9887 12.9854 30.422 13.9833 29.7095C15.5167 28.6158 17.5312 28.4908 19.05 29.6033Z" fill="#0288D1"/>
</svg>
